<svg xmlns="http://www.w3.org/2000/svg" viewBox="0 0 180 190"><defs><linearGradient id="w" x1="0" y1="0" x2="1" y2="1"><stop stop-color="#f8f4ed"/><stop offset="1" stop-color="#d5c0ad"/></linearGradient><filter id="s"><feDropShadow dx="0" dy="8" stdDeviation="6" flood-opacity=".24"/></filter></defs><g filter="url(#s)"><path d="M12 155l73-38 82 28-73 38z" fill="#8ba177"/><path d="M34 58l57-30 56 21v106l-57 29-56-20z" fill="url(#w)" stroke="#7f7066" stroke-width="3"/><path d="M25 57l65-37 67 27-67 34z" fill="#6c8190" stroke="#536670" stroke-width="3"/><g fill="#4c7e98"><rect x="45" y="68" width="16" height="17"/><rect x="69" y="59" width="16" height="17"/><rect x="95" y="68" width="16" height="17"/><rect x="119" y="59" width="16" height="17"/><rect x="45" y="99" width="16" height="17"/><rect x="69" y="90" width="16" height="17"/><rect x="95" y="99" width="16" height="17"/><rect x="119" y="90" width="16" height="17"/></g><g stroke="#867366" stroke-width="3"><path d="M37 91l53 18M37 122l53 18"/></g><rect x="68" y="141" width="21" height="32" fill="#795d49"/><path d="M32 133l58 20 57-30" fill="none" stroke="#b69a80" stroke-width="4"/><circle cx="26" cy="145" r="13" fill="#57935c"/><circle cx="150" cy="130" r="11" fill="#4e8a56"/></g></svg>