<svg xmlns="http://www.w3.org/2000/svg" viewBox="0 0 170 205"><defs><filter id="s"><feDropShadow dx="0" dy="8" stdDeviation="5" flood-opacity=".26"/></filter></defs><g filter="url(#s)"><path d="M12 171l67-35 79 25-68 36z" fill="#819e72"/><path d="M39 49l51-28 50 19v128l-51 26-50-18z" fill="#e6d7c7" stroke="#75665b" stroke-width="3"/><path d="M31 48l58-34 61 24-61 31z" fill="#d9d0c7" stroke="#786a62" stroke-width="3"/><g fill="#5486a0"><rect x="50" y="63" width="15" height="18"/><rect x="75" y="55" width="15" height="18"/><rect x="101" y="64" width="15" height="18"/><rect x="50" y="93" width="15" height="18"/><rect x="75" y="85" width="15" height="18"/><rect x="101" y="94" width="15" height="18"/><rect x="50" y="123" width="15" height="18"/><rect x="75" y="115" width="15" height="18"/><rect x="101" y="124" width="15" height="18"/></g><g stroke="#8b7d72" stroke-width="3"><path d="M45 85l40 14M45 116l40 14M45 147l40 14"/></g><rect x="72" y="145" width="19" height="34" fill="#705842"/><circle cx="27" cy="154" r="13" fill="#4d8f59"/><circle cx="145" cy="145" r="11" fill="#559b61"/></g></svg>