<svg xmlns="http://www.w3.org/2000/svg" viewBox="0 0 190 290"><defs><linearGradient id="w" x1="0" y1="0" x2="1" y2="1"><stop stop-color="#fbfaf6"/><stop offset=".55" stop-color="#dbe6e9"/><stop offset="1" stop-color="#a7bac2"/></linearGradient><filter id="s"><feDropShadow dx="0" dy="12" stdDeviation="7" flood-opacity=".28"/></filter></defs><g filter="url(#s)"><path d="M13 249l77-40 87 29-78 41z" fill="#809975"/><path d="M45 55l55-29 51 19v198l-56 29-50-18z" fill="url(#w)" stroke="#66767d" stroke-width="3"/><path d="M35 53l64-37 62 25-62 33z" fill="#dce5e7" stroke="#66767d" stroke-width="3"/><g fill="#4e839d"><rect x="56" y="66" width="16" height="18"/><rect x="79" y="58" width="16" height="18"/><rect x="104" y="66" width="16" height="18"/><rect x="128" y="58" width="14" height="18"/><rect x="56" y="98" width="16" height="18"/><rect x="79" y="90" width="16" height="18"/><rect x="104" y="98" width="16" height="18"/><rect x="128" y="90" width="14" height="18"/><rect x="56" y="130" width="16" height="18"/><rect x="79" y="122" width="16" height="18"/><rect x="104" y="130" width="16" height="18"/><rect x="128" y="122" width="14" height="18"/><rect x="56" y="162" width="16" height="18"/><rect x="79" y="154" width="16" height="18"/><rect x="104" y="162" width="16" height="18"/><rect x="128" y="154" width="14" height="18"/><rect x="56" y="194" width="16" height="18"/><rect x="79" y="186" width="16" height="18"/><rect x="104" y="194" width="16" height="18"/><rect x="128" y="186" width="14" height="18"/></g><g stroke="#91a2a8" stroke-width="3"><path d="M47 91l48 17M47 123l48 17M47 155l48 17M47 187l48 17M47 219l48 17"/></g><rect x="75" y="231" width="22" height="32" fill="#506875"/><rect x="75" y="30" width="45" height="8" rx="4" fill="#8b9aa0"/><circle cx="166" cy="226" r="14" fill="#4e8d58"/></g></svg>